<svg width="310" height="35" viewBox="0 0 310 35" fill="none" xmlns="http://www.w3.org/2000/svg">
<g clip-path="url(#clip0_444_2301)">
<g filter="url(#filter0_d_444_2301)">
<rect x="55.8182" y="0.360939" width="49.8096" height="33.9282" rx="3.97033" fill="white" stroke="#D9D9D9" stroke-width="0.721878"/>
<path fill-rule="evenodd" clip-rule="evenodd" d="M81.0839 24.7705C79.3636 26.255 77.1321 27.1512 74.6937 27.1512C69.2526 27.1512 64.8418 22.6892 64.8418 17.185C64.8418 11.6808 69.2526 7.21875 74.6937 7.21875C77.1321 7.21875 79.3636 8.11494 81.084 9.59949C82.8043 8.11495 85.0358 7.21878 87.4743 7.21878C92.9153 7.21878 97.3261 11.6808 97.3261 17.185C97.3261 22.6892 92.9153 27.1512 87.4743 27.1512C85.0358 27.1512 82.8043 26.255 81.0839 24.7705Z" fill="#ED0006"/>
<path fill-rule="evenodd" clip-rule="evenodd" d="M81.084 24.7704C83.2023 22.9424 84.5455 20.2224 84.5455 17.185C84.5455 14.1476 83.2023 11.4275 81.084 9.59952C82.8043 8.11495 85.0359 7.21875 87.4743 7.21875C92.9154 7.21875 97.3262 11.6808 97.3262 17.185C97.3262 22.6892 92.9154 27.1512 87.4743 27.1512C85.0359 27.1512 82.8043 26.255 81.084 24.7704Z" fill="#F9A000"/>
<path fill-rule="evenodd" clip-rule="evenodd" d="M81.084 24.7704C83.2022 22.9424 84.5454 20.2224 84.5454 17.185C84.5454 14.1476 83.2022 11.4276 81.084 9.59961C78.9657 11.4276 77.6226 14.1476 77.6226 17.185C77.6226 20.2224 78.9657 22.9424 81.084 24.7704Z" fill="#FF5E00"/>
</g>
<rect x="0.360939" y="0.360939" width="49.8096" height="33.9283" rx="3.97033" fill="white" stroke="#D9D9D9" stroke-width="0.721878"/>
<path fill-rule="evenodd" clip-rule="evenodd" d="M17.1891 22.6795H14.3555L12.2307 14.3348C12.1299 13.9509 11.9157 13.6116 11.6007 13.4516C10.8146 13.0497 9.94839 12.7298 9.00342 12.5685V12.2472H13.568C14.198 12.2472 14.6705 12.7298 14.7493 13.2903L15.8517 19.3096L18.6839 12.2472H21.4387L17.1891 22.6795ZM23.0132 22.6794H20.3372L22.5407 12.2471H25.2168L23.0132 22.6794ZM28.6802 15.1355C28.759 14.5737 29.2315 14.2524 29.7827 14.2524C30.6489 14.1717 31.5925 14.3331 32.38 14.7336L32.8525 12.4875C32.065 12.1662 31.1988 12.0049 30.4127 12.0049C27.8154 12.0049 25.9254 13.4499 25.9254 15.4554C25.9254 16.9811 27.2642 17.7822 28.2091 18.2648C29.2315 18.746 29.6252 19.0673 29.5465 19.5485C29.5465 20.2703 28.759 20.5916 27.9729 20.5916C27.0279 20.5916 26.0829 20.351 25.2181 19.9491L24.7456 22.1966C25.6906 22.5971 26.7129 22.7584 27.6579 22.7584C30.5702 22.8377 32.38 21.3941 32.38 19.2272C32.38 16.4985 28.6802 16.3386 28.6802 15.1355V15.1355ZM41.744 22.6794L39.6192 12.2471H37.3369C36.8644 12.2471 36.3919 12.5684 36.2344 13.0496L32.2998 22.6794H35.0546L35.6044 21.1551H38.9892L39.3042 22.6794H41.744ZM37.7306 15.0552L38.5167 18.9869H36.3131L37.7306 15.0552Z" fill="#172B85"/>
<rect x="221.35" y="0.360939" width="49.8096" height="33.9283" rx="3.97033" fill="white" stroke="#D9D9D9" stroke-width="0.721878"/>
<path d="M232.721 6.96674V27.4495C232.721 28.4299 233.524 29.2321 234.504 29.2321H246.742C255.994 29.2321 260.005 24.0535 260.005 17.1814C260.005 10.3449 255.994 5.18408 246.742 5.18408H234.504C233.524 5.18408 232.721 5.98628 232.721 6.96674Z" fill="white"/>
<path d="M240.913 10.2111V25.3458H247.5C253.481 25.3458 256.075 21.9677 256.075 17.1902C256.075 12.6177 253.481 9.07019 247.5 9.07019H242.054C241.421 9.07019 240.913 9.58716 240.913 10.2111Z" fill="#CC0066"/>
<path d="M246.742 27.601H236.1C235.155 27.601 234.388 26.8344 234.388 25.8896V8.53545C234.388 7.59064 235.155 6.8241 236.1 6.8241H246.742C256.841 6.8241 258.347 13.3219 258.347 17.1902C258.347 23.902 254.22 27.601 246.742 27.601ZM236.1 7.39455C235.467 7.39455 234.959 7.9026 234.959 8.53545V25.8896C234.959 26.5225 235.467 27.0305 236.1 27.0305H246.742C253.855 27.0305 257.777 23.5365 257.777 17.1902C257.777 8.66915 250.86 7.39455 246.742 7.39455H236.1V7.39455Z" fill="black"/>
<path d="M243.231 15.1493C243.462 15.1493 243.676 15.1849 243.881 15.2563C244.086 15.3276 244.256 15.4434 244.407 15.586C244.55 15.7376 244.666 15.9247 244.755 16.1387C244.835 16.3615 244.88 16.62 244.88 16.923C244.88 17.1904 244.844 17.4311 244.782 17.6539C244.71 17.8768 244.612 18.0728 244.479 18.2333C244.345 18.3937 244.176 18.5185 243.971 18.6166C243.766 18.7057 243.525 18.7592 243.249 18.7592H241.689V15.1404H243.231V15.1493ZM243.177 18.0996C243.293 18.0996 243.4 18.0818 243.516 18.0461C243.623 18.0105 243.721 17.9481 243.801 17.8589C243.881 17.7698 243.953 17.6628 244.006 17.5202C244.06 17.3776 244.086 17.2172 244.086 17.0122C244.086 16.8339 244.069 16.6646 244.033 16.5219C243.997 16.3793 243.935 16.2456 243.855 16.1476C243.774 16.0495 243.667 15.9604 243.534 15.9069C243.4 15.8534 243.24 15.8267 243.044 15.8267H242.473V18.1085H243.177V18.0996Z" fill="white"/>
<path d="M248.097 15.1493V15.8178H246.19V16.5932H247.946V17.2083H246.19V18.0907H248.142V18.7592H245.396V15.1404H248.097V15.1493Z" fill="white"/>
<path d="M250.825 15.1494L252.179 18.7682H251.35L251.074 17.966H249.719L249.434 18.7682H248.632L249.996 15.1494H250.825V15.1494ZM250.869 17.3688L250.414 16.0407H250.406L249.933 17.3688H250.869Z" fill="white"/>
<path d="M253.472 15.1494V18.0997H255.236V18.7682H252.678V15.1494H253.472V15.1494Z" fill="white"/>
<path d="M237.935 18.6253C238.856 18.6253 239.602 17.8791 239.602 16.9585C239.602 16.038 238.856 15.2917 237.935 15.2917C237.015 15.2917 236.269 16.038 236.269 16.9585C236.269 17.8791 237.015 18.6253 237.935 18.6253Z" fill="black"/>
<path d="M239.192 25.346C237.793 25.346 236.67 24.214 236.67 22.8235V20.8537C236.67 20.1585 237.231 19.588 237.936 19.588C238.631 19.588 239.201 20.1495 239.201 20.8537V25.346H239.192Z" fill="black"/>
<rect x="165.893" y="0.360939" width="49.8096" height="33.9283" rx="3.97033" fill="white" stroke="#D9D9D9" stroke-width="0.721878"/>
<path d="M200.741 17.8719C201.811 17.8927 202.887 17.8295 203.953 17.9047C205.032 18.0854 205.292 19.5513 204.333 20.0314C203.679 20.3477 202.902 20.1492 202.192 20.205H200.741V17.8719V17.8719ZM204.571 15.2311C204.809 15.9839 204 16.6599 203.192 16.5562H200.741C200.758 15.8463 200.707 15.0757 200.766 14.4031C201.748 14.4279 202.739 14.3525 203.715 14.4425C204.134 14.5371 204.485 14.8465 204.571 15.2311V15.2311ZM210.47 4.0667C210.516 5.50444 210.477 7.01816 210.49 8.48506C210.487 14.4489 210.496 20.4126 210.484 26.3769C210.441 28.6119 208.234 30.5541 205.76 30.5987C203.284 30.6077 200.807 30.6001 198.33 30.6026V21.5864C201.029 21.5739 203.728 21.6118 206.426 21.5675C207.677 21.497 209.048 20.7563 209.106 19.5208C209.253 18.28 207.949 17.4218 206.711 17.2862C206.236 17.2751 206.249 17.1617 206.711 17.1123C207.892 16.8833 208.819 15.7869 208.472 14.6889C208.176 13.534 206.753 13.087 205.57 13.0892C203.157 13.0745 200.744 13.0872 198.331 13.0829C198.346 11.3997 198.298 9.71471 198.357 8.03273C198.548 5.83797 200.811 4.02801 203.25 4.06728C205.657 4.06695 208.064 4.06695 210.47 4.06687V4.0667Z" fill="url(#paint0_linear_444_2301)"/>
<path d="M171.064 8.26009C171.126 6.02852 173.343 4.10232 175.814 4.0697C178.281 4.06288 180.748 4.06872 183.215 4.06675C183.209 11.5331 183.229 19.0003 183.205 26.4662C183.11 28.6706 180.917 30.5601 178.473 30.5992C176.002 30.6072 173.53 30.6003 171.058 30.6025V21.2824C173.459 21.7914 175.977 22.008 178.426 21.6704C179.89 21.4591 181.492 20.8139 181.988 19.451C182.353 18.2852 182.147 17.0583 182.201 15.8617V13.083H177.962C177.943 14.9208 178.001 16.7618 177.932 18.5974C177.818 19.7257 176.572 20.4425 175.386 20.4042C173.915 20.4182 171.001 19.4478 171.001 19.4478C170.993 16.0045 171.043 11.6923 171.064 8.26042V8.26009Z" fill="url(#paint1_linear_444_2301)"/>
<path d="M184.796 14.2037C184.573 14.2462 184.751 13.5218 184.694 13.247C184.71 11.5095 184.663 9.77008 184.72 8.0338C184.911 5.82976 187.192 4.01528 189.641 4.06687H196.853C196.846 11.5332 196.866 19.0004 196.842 26.4663C196.747 28.6708 194.554 30.5602 192.11 30.5993C189.639 30.6077 187.166 30.6006 184.694 30.6027V20.3913C186.383 21.6342 188.677 21.8276 190.781 21.831C192.366 21.8305 193.943 21.6112 195.482 21.283V19.4123C193.747 20.1883 191.707 20.6812 189.783 20.2354C188.442 19.9357 187.467 18.7721 187.489 17.5295C187.334 16.2374 188.178 14.8732 189.593 14.489C191.35 13.9955 193.265 14.3729 194.912 15.0146C195.265 15.1804 195.623 15.386 195.482 14.8568V13.3864C192.728 12.7983 189.796 12.582 187.029 13.2217C186.228 13.4244 185.447 13.7319 184.796 14.2039V14.2037Z" fill="url(#paint2_linear_444_2301)"/>
<rect x="275.859" y="0.360939" width="33.3826" height="33.9283" rx="3.97033" fill="white" stroke="#D9D9D9" stroke-width="0.721878"/>
<path d="M283.442 22.6226C282.745 22.6226 282.125 22.5031 281.582 22.2641C281.043 22.0251 280.616 21.6925 280.303 21.2662C279.99 20.8398 279.824 20.3473 279.804 19.7886H281.626C281.642 20.0567 281.731 20.2908 281.892 20.4911C282.054 20.6881 282.268 20.8415 282.536 20.9513C282.804 21.0611 283.105 21.116 283.437 21.116C283.793 21.116 284.108 21.0546 284.382 20.9319C284.657 20.8059 284.871 20.6315 285.026 20.4087C285.181 20.1859 285.257 19.9291 285.254 19.6384C285.257 19.3381 285.18 19.0733 285.022 18.844C284.863 18.6147 284.634 18.4354 284.334 18.3062C284.037 18.1771 283.678 18.1125 283.258 18.1125H282.381V16.727H283.258C283.604 16.727 283.906 16.6672 284.164 16.5477C284.426 16.4282 284.631 16.2603 284.779 16.0439C284.928 15.8243 285.001 15.5708 284.997 15.2833C285.001 15.0024 284.938 14.7585 284.808 14.5518C284.682 14.3419 284.503 14.1788 284.271 14.0626C284.041 13.9463 283.772 13.8882 283.462 13.8882C283.158 13.8882 282.877 13.9431 282.619 14.0529C282.36 14.1627 282.152 14.3193 281.994 14.5228C281.836 14.723 281.752 14.962 281.742 15.2397H280.012C280.025 14.6843 280.185 14.1966 280.492 13.7767C280.802 13.3537 281.215 13.0242 281.732 12.7885C282.249 12.5495 282.829 12.43 283.471 12.43C284.133 12.43 284.708 12.5543 285.196 12.803C285.687 13.0485 286.066 13.3795 286.334 13.7961C286.602 14.2127 286.736 14.6729 286.736 15.1768C286.74 15.7355 286.575 16.2038 286.242 16.5816C285.913 16.9595 285.48 17.2066 284.944 17.3228V17.4003C285.642 17.4972 286.176 17.7556 286.548 18.1754C286.922 18.5921 287.108 19.1104 287.105 19.7305C287.105 20.286 286.946 20.7833 286.63 21.2226C286.317 21.6585 285.884 22.0009 285.332 22.2496C284.783 22.4982 284.153 22.6226 283.442 22.6226ZM292.435 22.6759C291.637 22.6759 290.952 22.474 290.381 22.0703C289.812 21.6634 289.375 21.0772 289.068 20.3118C288.764 19.5432 288.612 18.6179 288.612 17.536C288.616 16.4541 288.769 15.5336 289.073 14.7747C289.379 14.0125 289.817 13.4312 290.386 13.0307C290.957 12.6302 291.64 12.43 292.435 12.43C293.229 12.43 293.912 12.6302 294.484 13.0307C295.055 13.4312 295.493 14.0125 295.797 14.7747C296.103 15.5369 296.257 16.4573 296.257 17.536C296.257 18.6211 296.103 19.548 295.797 20.3167C295.493 21.0821 295.055 21.6666 294.484 22.0703C293.915 22.474 293.232 22.6759 292.435 22.6759ZM292.435 21.1596C293.055 21.1596 293.544 20.8544 293.903 20.244C294.264 19.6304 294.445 18.7277 294.445 17.536C294.445 16.748 294.363 16.0859 294.198 15.5498C294.033 15.0137 293.801 14.61 293.5 14.3387C293.2 14.0642 292.845 13.9269 292.435 13.9269C291.818 13.9269 291.33 14.2337 290.972 14.8473C290.613 15.4577 290.432 16.3539 290.429 17.536C290.426 18.3272 290.505 18.9925 290.666 19.5319C290.831 20.0712 291.064 20.4781 291.364 20.7526C291.664 21.0239 292.021 21.1596 292.435 21.1596ZM300.812 20.898V14.1934H302.333V20.898H300.812ZM298.22 18.3062V16.7851H304.925V18.3062H298.22Z" fill="#332F2F"/>
<rect x="110.435" y="0.360939" width="49.8096" height="33.9283" rx="3.97033" fill="white" stroke="#D9D9D9" stroke-width="0.721878"/>
<path fill-rule="evenodd" clip-rule="evenodd" d="M119.545 13L115 21.5227H120.441L121.116 20.1638H122.657L123.332 21.5227H129.321V20.4856L129.855 21.5227H132.953L133.486 20.4637V21.5227H145.942L147.456 20.1991L148.875 21.5227L155.272 21.5337L150.713 17.2852L155.272 13H148.974L147.5 14.2991L146.126 13H132.576L131.412 15.1998L130.222 13H124.792V14.0018L124.188 13H119.545ZM120.598 14.2102H123.25L126.265 19.9895V14.2102H129.17L131.498 18.3539L133.644 14.2102H136.535V20.3258H134.776L134.762 15.5336L132.197 20.3258H130.624L128.045 15.5336V20.3258H124.426L123.74 18.9548H120.034L119.349 20.3246H117.41L120.598 14.2102ZM145.297 14.2102H138.145V20.3222H145.187L147.456 18.2966L149.644 20.3222H151.931L148.607 17.2839L151.931 14.2102H149.743L147.485 16.2125L145.297 14.2102ZM121.888 15.2449L120.667 17.6873H123.108L121.888 15.2449ZM139.911 16.5929V15.4765V15.4754H144.374L146.322 17.2608L144.288 19.056H139.911V17.8372H143.813V16.5929H139.911Z" fill="#1F72CD"/>
</g>
<defs>
<filter id="filter0_d_444_2301" x="50.0006" y="-5.45671" width="61.4449" height="45.5636" filterUnits="userSpaceOnUse" color-interpolation-filters="sRGB">
<feFlood flood-opacity="0" result="BackgroundImageFix"/>
<feColorMatrix in="SourceAlpha" type="matrix" values="0 0 0 0 0 0 0 0 0 0 0 0 0 0 0 0 0 0 127 0" result="hardAlpha"/>
<feOffset/>
<feGaussianBlur stdDeviation="2.72836"/>
<feComposite in2="hardAlpha" operator="out"/>
<feColorMatrix type="matrix" values="0 0 0 0 0 0 0 0 0 0 0 0 0 0 0 0 0 0 0.07 0"/>
<feBlend mode="normal" in2="BackgroundImageFix" result="effect1_dropShadow_444_2301"/>
<feBlend mode="normal" in="SourceGraphic" in2="effect1_dropShadow_444_2301" result="shape"/>
</filter>
<linearGradient id="paint0_linear_444_2301" x1="198.247" y1="16.7673" x2="210.413" y2="16.7673" gradientUnits="userSpaceOnUse">
<stop stop-color="#58B03A"/>
<stop offset="1" stop-color="#55B330"/>
</linearGradient>
<linearGradient id="paint1_linear_444_2301" x1="170.799" y1="17.5887" x2="183.016" y2="17.5887" gradientUnits="userSpaceOnUse">
<stop stop-color="#0F6EB6"/>
<stop offset="1" stop-color="#006DBA"/>
</linearGradient>
<linearGradient id="paint2_linear_444_2301" x1="184.677" y1="17.0245" x2="196.85" y2="17.0245" gradientUnits="userSpaceOnUse">
<stop stop-color="#DE0D3D"/>
<stop offset="1" stop-color="#E30138"/>
</linearGradient>
<clipPath id="clip0_444_2301">
<rect width="310" height="35" fill="white"/>
</clipPath>
</defs>
</svg>
